# xmcd
#
# Track frame offsets:
#	150
#	15819
#	33477
#	49137
#	64597
#	78697
#	95660
#	112677
#	128647
#	146106
#	164557
#	182134
#	199244
#	214905
#
# Disc length: 3113 seconds
#
# Revision: 7
# Processed by: cddbd v1.5.2PL0 Copyright (c) Steve Scherf et al.
# Submitted via: EasyCDDAExtractor 15.3.0.1
#
DISCID=c30c270e
DTITLE=Laura Pausini - Primavera Anticipada
DYEAR=2008
DGENRE=Latin
TTITLE0=Alzando Nuestros Brazos
TTITLE1=En Cambio No
TTITLE2=Primavera Anticipada (It Is My Song) (Duet With James Blunt)
TTITLE3=Del Modo Mas Sincero
TTITLE4=Un Hecho Obvio
TTITLE5=Mis Beneficios
TTITLE6=Antes De Irte
TTITLE7=Mas Que Ayer
TTITLE8=Bellisimo Asi
TTITLE9=La Impresion
TTITLE10=La Geografia De Mi Camino
TTITLE11=Primavera Anticipada
TTITLE12=Cada Color Al Cielo
TTITLE13=Hermana Tierra
EXTD=YEAR: 2008
EXTT0=
EXTT1=
EXTT2=
EXTT3=
EXTT4=
EXTT5=
EXTT6=
EXTT7=
EXTT8=
EXTT9=
EXTT10=
EXTT11=
EXTT12=
EXTT13=
PLAYORDER=
